<svg preserveAspectRatio="none" overflow="visible" style="display: block;" width="325.333" height="289" viewBox="0 0 325.333 289" fill="none" xmlns="http://www.w3.org/2000/svg">
<foreignObject x="-12" y="-12" width="349.333" height="313"><div xmlns="http://www.w3.org/1999/xhtml" style="backdrop-filter:blur(6px);clip-path:url(#bgblur_0_0_27_clip_path);height:100%;width:100%"></div></foreignObject><g id="box" filter="url(#filter0)" data-figma-bg-blur-radius="12">
<rect width="325.333" height="289" rx="48" fill="url(#paint0_linear_0_27)"/>
<rect x="1.5" y="1.5" width="322.333" height="286" rx="46.5" stroke="url(#paint1_linear_0_27)" style="mix-blend-mode:overlay" stroke-width="3"/>
<g id="innner">
<g id="text">
<path id="Heading 4 &#226;&#134;&#146; &#235;&#140;&#128;&#236;&#164;&#145; &#234;&#176;&#128;&#236;&#136;&#152;, CCM &#234;&#176;&#128;&#236;&#136;&#152;, &#236;&#176;&#172;&#236;&#150;&#145;&#10;&#236;&#130;&#172;&#236;&#151;&#173;&#236;&#158;&#144;" d="M56.56 58.864V62.448H35.84V58.864H41.776V57.016H46.704V58.864H50.792V56.568H36.68V53.432H50.792V51.864H36.68V48.504H55.72V57.184L54.04 58.864H56.56ZM41.608 63.288V65.976H56V69.56H36.68V63.288H41.608ZM78.1145 69.56H71.5065L73.1865 67.88V60.74H71.5065V67.6L69.8265 69.28H66.8025V52.536H63.4985V69.28H58.7945V52.312L62.7145 48.392H67.5865L71.5065 52.312V56.484H73.1865V49.4L74.3065 48.28H78.1145V69.56ZM80.6291 69.28V65.36H101.349V69.28H80.6291ZM100.369 57.016H86.3971V58.808H100.649V62.28H81.4691V50.744L83.7091 48.504H100.509V51.976H86.3971V53.768H100.369V57.016Z" fill="#062259"/>
<path id="Heading 4 &#226;&#134;&#146; &#235;&#140;&#128;&#236;&#164;&#145; &#234;&#176;&#128;&#236;&#136;&#152;, CCM &#234;&#176;&#128;&#236;&#136;&#152;, &#236;&#176;&#172;&#236;&#150;&#145;&#10;&#236;&#130;&#172;&#236;&#151;&#173;&#236;&#158;&#144;_2" d="M49.8726 94.5955H37.8185V93.0146H49.8726V94.5955ZM52.7431 101.179H35.6864V99.5772H52.7431V101.179ZM45.1612 104.954H43.1955V100.669H45.1612V104.954ZM50.5798 94.3875C50.5798 95.476 50.5451 96.4641 50.4758 97.3516C50.4064 98.2391 50.24 99.2479 49.9766 100.378L48.0421 100.149C48.2154 99.3727 48.3437 98.6481 48.4269 97.9756C48.5101 97.2961 48.5621 96.7067 48.5829 96.2075C48.6037 95.7014 48.6141 95.0947 48.6141 94.3875V93.0146H50.5798V94.3875ZM50.6734 110.758H48.6869V105.953H37.4337V104.351H50.6734V110.758ZM55.5568 103.893C55.2933 103.893 55.0472 103.824 54.8184 103.685C54.5896 103.547 54.4093 103.366 54.2775 103.145C54.1527 102.916 54.0903 102.67 54.0903 102.406C54.0903 102.15 54.1527 101.907 54.2775 101.678C54.4093 101.449 54.5896 101.273 54.8184 101.148C55.0472 101.016 55.2933 100.95 55.5568 100.95C55.8133 100.95 56.056 101.016 56.2848 101.148C56.5136 101.273 56.6939 101.449 56.8256 101.678C56.9574 101.907 57.0233 102.15 57.0233 102.406C57.0233 102.67 56.9574 102.916 56.8256 103.145C56.6939 103.366 56.5136 103.547 56.2848 103.685C56.056 103.824 55.8133 103.893 55.5568 103.893ZM74.3559 110.758H72.4423V92.1202H74.3559V110.758ZM72.9935 101.231H69.5093V99.5772H72.9935V101.231ZM70.071 109.822H68.2197V92.505H70.071V109.822ZM61.241 105.079H59.2754V94.3354H61.241V105.079ZM60.461 104.299C61.5704 104.299 62.6486 104.254 63.6955 104.164C64.7425 104.074 65.8241 103.921 66.9404 103.706L67.1797 105.443C65.9663 105.651 64.8153 105.804 63.7267 105.901C62.6382 105.991 61.5496 106.036 60.461 106.036H59.2754V104.299H60.461ZM83.2019 105.599H81.2154V101.429H83.2019V105.599ZM82.2242 93.3058C83.2019 93.3058 84.0721 93.493 84.8347 93.8674C85.5974 94.2418 86.1937 94.7688 86.6236 95.4483C87.0604 96.1209 87.2788 96.887 87.2788 97.7468C87.2788 98.6065 87.0604 99.3727 86.6236 100.045C86.1937 100.711 85.5974 101.234 84.8347 101.616C84.0721 101.99 83.2019 102.177 82.2242 102.177C81.2535 102.177 80.3799 101.99 79.6033 101.616C78.8268 101.234 78.2201 100.711 77.7833 100.045C77.3534 99.3727 77.1385 98.6065 77.1385 97.7468C77.1385 96.887 77.3534 96.1209 77.7833 95.4483C78.2201 94.7688 78.8268 94.2418 79.6033 93.8674C80.3799 93.493 81.2535 93.3058 82.2242 93.3058ZM82.2242 95.0219C81.621 95.0219 81.0802 95.1328 80.6018 95.3547C80.1303 95.5766 79.7594 95.8955 79.4889 96.3115C79.2185 96.7275 79.0833 97.206 79.0833 97.7468C79.0833 98.2876 79.2185 98.766 79.4889 99.182C79.7594 99.598 80.1303 99.9205 80.6018 100.149C81.0802 100.371 81.621 100.482 82.2242 100.482C82.8275 100.482 83.3648 100.371 83.8363 100.149C84.3147 99.9205 84.6857 99.598 84.9492 99.182C85.2196 98.766 85.3548 98.2876 85.3548 97.7468C85.3548 97.206 85.2196 96.7275 84.9492 96.3115C84.6857 95.8955 84.3147 95.5766 83.8363 95.3547C83.3648 95.1328 82.8275 95.0219 82.2242 95.0219ZM91.5534 110.81H89.5877V92.1202H91.5534V110.81ZM76.2336 105.183C77.7521 105.183 79.1388 105.169 80.3938 105.141C81.6557 105.114 82.9939 105.058 84.4083 104.975C85.8228 104.885 87.1575 104.746 88.4125 104.559L88.5581 105.994C87.2615 106.237 85.9129 106.417 84.5123 106.535C83.1187 106.653 81.8117 106.729 80.5914 106.764C79.3711 106.799 78.0052 106.816 76.4936 106.816L76.2336 105.183ZM115.465 104.965H98.4081V103.342H115.465V104.965ZM107.883 110.758H105.938V103.841H107.883V110.758ZM113.582 101.605H100.644V100.014H113.582V101.605ZM113.374 94.5435H102.599V100.44H100.644V92.9626H113.374V94.5435ZM112.948 98.0068H102.038V96.4571H112.948V98.0068ZM121.232 93.5242C122.147 93.5242 122.959 93.7946 123.666 94.3354C124.38 94.8763 124.938 95.639 125.34 96.6235C125.742 97.6081 125.944 98.7556 125.944 100.066C125.944 101.383 125.742 102.534 125.34 103.519C124.938 104.504 124.38 105.266 123.666 105.807C122.959 106.341 122.147 106.608 121.232 106.608C120.317 106.608 119.499 106.341 118.778 105.807C118.064 105.273 117.505 104.514 117.103 103.529C116.701 102.538 116.5 101.383 116.5 100.066C116.5 98.7556 116.701 97.6081 117.103 96.6235C117.505 95.639 118.064 94.8763 118.778 94.3354C119.499 93.7946 120.317 93.5242 121.232 93.5242ZM121.232 95.2923C120.678 95.2923 120.182 95.4864 119.745 95.8747C119.308 96.263 118.972 96.8177 118.736 97.5388C118.507 98.2529 118.393 99.0954 118.393 100.066C118.393 101.03 118.507 101.872 118.736 102.593C118.972 103.314 119.308 103.869 119.745 104.257C120.182 104.639 120.678 104.829 121.232 104.829C121.787 104.829 122.283 104.639 122.719 104.257C123.156 103.869 123.493 103.314 123.728 102.593C123.964 101.872 124.082 101.03 124.082 100.066C124.082 99.0954 123.961 98.2529 123.718 97.5388C123.482 96.8177 123.149 96.263 122.719 95.8747C122.296 95.4864 121.801 95.2923 121.232 95.2923ZM131.726 110.81H129.761V92.1202H131.726V110.81ZM130.624 100.732H125.32V99.1196H130.624V100.732ZM152.497 94.5643H140.474V92.973H152.497V94.5643ZM153.391 94.5955C153.391 95.3998 153.384 96.0827 153.37 96.6443C153.356 97.206 153.311 97.8369 153.235 98.5372C153.159 99.2375 153.041 99.9829 152.881 100.773L150.926 100.607C151.093 99.8442 151.214 99.1231 151.29 98.4436C151.366 97.7641 151.412 97.1505 151.425 96.6027C151.439 96.055 151.446 95.3859 151.446 94.5955V92.973H153.391V94.5955ZM140.255 98.3812L139.995 96.7275L152.018 96.3739V97.8404L140.255 98.3812ZM155.44 103.509H138.498V101.917H155.44V103.509ZM147.192 102.947H145.206V99.3172H147.192V102.947ZM153.797 110.477H140.588V108.875H153.797V110.477ZM142.575 109.562H140.588V104.954H142.575V109.562ZM170.786 99.9205H165.638V98.3292H170.786V99.9205ZM162.559 96.8627C162.559 98.2911 162.344 99.6708 161.915 101.002C161.485 102.326 160.878 103.502 160.095 104.528C159.311 105.554 158.403 106.341 157.37 106.889L156.111 105.287C157.061 104.836 157.9 104.171 158.628 103.29C159.363 102.403 159.932 101.397 160.334 100.274C160.736 99.1508 160.937 98.0137 160.937 96.8627V93.6698H162.559V96.8627ZM162.944 96.8627C162.944 98.0068 163.142 99.1196 163.537 100.201C163.939 101.276 164.497 102.233 165.212 103.072C165.933 103.904 166.758 104.531 167.687 104.954L166.501 106.556C165.461 106.022 164.553 105.266 163.776 104.289C163.007 103.304 162.407 102.174 161.977 100.898C161.554 99.6154 161.343 98.2703 161.343 96.8627V93.6698H162.944V96.8627ZM171.764 110.81H169.798V92.1202H171.764V110.81ZM189.096 103.644H176.096V102.053H189.096V103.644ZM191.021 108.418H173.964V106.795H191.021V108.418ZM188.909 95.2923H178.114V102.51H176.096V93.649H188.909V95.2923ZM188.493 99.3484H177.5V97.7884H188.493V99.3484ZM212.217 110.758H210.304V92.1202H212.217V110.758ZM210.959 101.106H207.454V99.494H210.959V101.106ZM204.313 94.5123C204.313 96.2387 204.091 97.8438 203.647 99.3276C203.211 100.811 202.479 102.191 201.453 103.467C200.427 104.736 199.057 105.852 197.345 106.816L196.19 105.443C197.688 104.597 198.894 103.633 199.81 102.552C200.732 101.47 201.397 100.295 201.807 99.026C202.223 97.7572 202.431 96.3705 202.431 94.8659V94.5123H204.313ZM203.044 96.1139H196.981V94.5123H203.044V96.1139ZM208.016 109.874H206.154V92.6194H208.016V109.874ZM221.209 106.067H219.254V102.042H221.209V106.067ZM220.814 95.9163C220.814 96.9771 220.599 97.9617 220.169 98.87C219.739 99.7714 219.129 100.548 218.338 101.2C217.555 101.845 216.622 102.323 215.541 102.635L214.605 101.137C215.555 100.867 216.373 100.475 217.059 99.9621C217.753 99.442 218.283 98.8354 218.65 98.142C219.025 97.4486 219.212 96.7067 219.212 95.9163V95.4691H220.814V95.9163ZM221.219 95.9163C221.219 96.6651 221.41 97.3758 221.791 98.0484C222.173 98.714 222.71 99.2964 223.403 99.7957C224.104 100.295 224.929 100.676 225.879 100.94L224.963 102.479C223.882 102.16 222.935 101.685 222.124 101.054C221.32 100.416 220.699 99.657 220.262 98.7764C219.826 97.8889 219.607 96.9355 219.607 95.9163V95.4691H221.219V95.9163ZM225.411 96.1035H215.104V94.4915H225.411V96.1035ZM221.209 95.2091H219.254V92.2762H221.209V95.2091ZM229.415 110.81H227.449V92.1202H229.415V110.81ZM214.095 105.422C215.704 105.408 217.118 105.388 218.338 105.36C219.559 105.332 220.873 105.273 222.28 105.183C223.688 105.093 225.019 104.958 226.274 104.777L226.42 106.223C225.123 106.466 223.774 106.65 222.374 106.774C220.98 106.892 219.67 106.965 218.442 106.993C217.215 107.02 215.853 107.034 214.355 107.034L214.095 105.422Z" fill="#062259"/>
</g>
<g id="icon">
<g id="icon_2" clip-path="url(#clip1_0_27)">
<path id="Vector" d="M247.645 272.867H244.355V226.056L245.68 227.381C245.985 227.686 246.386 227.84 246.787 227.84C247.188 227.84 247.589 227.688 247.894 227.381C248.506 226.769 248.506 225.776 247.894 225.164L241.922 219.192C243.046 217.114 242.73 214.457 240.976 212.704C239.94 211.668 238.561 211.098 237.097 211.098C235.632 211.098 234.254 211.668 233.217 212.704C231.078 214.843 231.078 218.323 233.217 220.464C234.287 221.534 235.693 222.069 237.097 222.069C237.997 222.069 238.895 221.849 239.706 221.411L241.218 222.923V272.867H237.926C237.061 272.867 236.359 273.568 236.359 274.433C236.359 275.298 237.061 276 237.926 276H247.641C248.506 276 249.208 275.298 249.208 274.433C249.208 273.568 248.506 272.867 247.641 272.867H247.645ZM235.434 218.248C234.517 217.331 234.517 215.837 235.434 214.92C235.879 214.475 236.47 214.231 237.099 214.231C237.727 214.231 238.319 214.475 238.763 214.92C239.681 215.837 239.681 217.331 238.763 218.248C237.846 219.165 236.353 219.165 235.436 218.248H235.434Z" fill="#6AD6EA"/>
<path id="Vector_2" d="M224.16 213.695C229.007 213.695 232.948 209.085 232.948 203.417C232.948 197.75 229.007 193.14 224.16 193.14C219.314 193.14 215.372 197.75 215.372 203.417C215.372 209.085 219.314 213.695 224.16 213.695Z" fill="#17BAB5"/>
<path id="Vector_3" d="M257.677 176.395C257.343 176.098 256.894 175.959 256.451 176.011L243.98 177.504C243.192 177.598 242.599 178.267 242.599 179.061V191.276C242.092 191.109 241.542 191.02 240.97 191.02C238.344 191.02 236.207 192.931 236.207 195.281C236.207 197.631 238.344 199.542 240.97 199.542C243.596 199.542 245.733 197.631 245.733 195.281V180.45L255.07 179.332V188.544C254.562 188.377 254.013 188.287 253.441 188.287C250.815 188.287 248.678 190.199 248.678 192.549C248.678 194.899 250.815 196.81 253.441 196.81C256.066 196.81 258.203 194.899 258.203 192.549V177.567C258.203 177.12 258.011 176.692 257.677 176.395ZM240.972 196.411C240.105 196.411 239.343 195.882 239.343 195.283C239.343 194.683 240.103 194.155 240.972 194.155C241.841 194.155 242.601 194.683 242.601 195.283C242.601 195.882 241.841 196.411 240.972 196.411ZM253.443 193.679C252.576 193.679 251.813 193.15 251.813 192.551C251.813 191.951 252.574 191.423 253.443 191.423C254.312 191.423 255.072 191.951 255.072 192.551C255.072 193.15 254.312 193.679 253.443 193.679Z" fill="#17BAB5"/>
<path id="Vector_4" d="M266.644 212.105C265.779 212.105 265.078 212.807 265.078 213.672V225.888C264.57 225.72 264.021 225.631 263.448 225.631C260.823 225.631 258.686 227.542 258.686 229.892C258.686 232.242 260.823 234.153 263.448 234.153C266.074 234.153 268.211 232.242 268.211 229.892V213.672C268.211 212.807 267.509 212.105 266.644 212.105ZM263.448 231.022C262.581 231.022 261.819 230.494 261.819 229.894C261.819 229.295 262.579 228.766 263.448 228.766C264.317 228.766 265.078 229.295 265.078 229.894C265.078 230.494 264.317 231.022 263.448 231.022Z" fill="#17BAB5"/>
<path id="Vector_5" d="M239.655 224.239V223.573L239.35 223.268C238.628 223.51 237.865 223.635 237.099 223.635C235.212 223.635 233.441 222.902 232.11 221.572C230.7 220.162 230.015 218.298 230.051 216.448C229.846 216.462 229.641 216.473 229.437 216.473H218.883C216.861 216.473 214.898 215.752 213.354 214.444L199.998 203.124C198.193 201.593 195.469 201.706 193.796 203.379C192.92 204.255 192.444 205.418 192.455 206.657C192.465 207.896 192.96 209.051 193.85 209.911L209.891 225.424C212.995 228.425 214.775 232.622 214.775 236.94V272.09C214.775 274.25 216.525 276 218.685 276C220.845 276 222.595 274.25 222.595 272.09V250.77C222.595 249.905 223.297 249.204 224.162 249.204C225.027 249.204 225.729 249.905 225.729 250.77V272.09C225.729 274.25 227.479 276 229.639 276C231.799 276 233.55 274.25 233.55 272.09V236.94C233.55 232.622 235.329 228.425 238.433 225.424L239.66 224.239H239.655Z" fill="#17BAB5"/>
<path id="Vector_6" d="M248.323 203.122L240.019 210.159C240.78 210.506 241.479 210.986 242.087 211.594C243.988 213.495 244.615 216.334 243.781 218.832L244.5 219.551L254.47 209.909C255.36 209.048 255.857 207.891 255.866 206.654C255.876 205.415 255.4 204.252 254.525 203.377C252.851 201.703 250.127 201.591 248.323 203.122Z" fill="#17BAB5"/>
</g>
</g>
</g>
</g>
<defs>
<filter id="filter0" x="0" y="0"  width="349.333" height="313" filterUnits="userSpaceOnUse" color-interpolation-filters="sRGB">
<feFlood flood-opacity="0" result="BackgroundImageFix"/>
<feBlend mode="normal" in="SourceGraphic" in2="BackgroundImageFix" result="shape"/>
<feTurbulence type="fractalNoise" baseFrequency="0.5 0.5" stitchTiles="stitch" numOctaves="3" result="noise" seed="5168" />
<feColorMatrix in="noise" type="luminanceToAlpha" result="alphaNoise" />
<feComponentTransfer in="alphaNoise" result="coloredNoise1">
<feFuncA type="discrete" tableValues="1 1 1 1 1 1 1 1 1 1 1 1 1 1 1 1 1 1 1 1 1 1 1 1 1 1 1 1 1 1 1 1 1 1 1 1 1 1 1 1 1 1 1 1 1 1 1 1 1 1 1 0 0 0 0 0 0 0 0 0 0 0 0 0 0 0 0 0 0 0 0 0 0 0 0 0 0 0 0 0 0 0 0 0 0 0 0 0 0 0 0 0 0 0 0 0 0 0 0 0 "/>
</feComponentTransfer>
<feComposite operator="in" in2="shape" in="coloredNoise1" result="noise1Clipped" />
<feFlood flood-color="rgba(0, 0, 0, 0.03)" result="color1Flood" />
<feComposite operator="in" in2="noise1Clipped" in="color1Flood" result="color1" />
<feMerge result="effect1_noise_0_27">
<feMergeNode in="shape" />
<feMergeNode in="color1" />
</feMerge>
</filter>
<clipPath id="bgblur_0_0_27_clip_path" transform="translate(12 12)"><rect width="325.333" height="289" rx="48"/>
</clipPath><linearGradient id="paint0_linear_0_27" x1="8.13333" y1="21.8205" x2="348.298" y2="77.4272" gradientUnits="userSpaceOnUse">
<stop stop-color="#A3CDFF"/>
<stop offset="1" stop-color="#E8F3FF"/>
</linearGradient>
<linearGradient id="paint1_linear_0_27" x1="17.5179" y1="44.8566" x2="109.559" y2="270.251" gradientUnits="userSpaceOnUse">
<stop stop-color="white" stop-opacity="0.5"/>
<stop offset="0.352567" stop-color="white" stop-opacity="0"/>
<stop offset="0.646925" stop-color="white" stop-opacity="0"/>
<stop offset="1" stop-color="white" stop-opacity="0.54"/>
</linearGradient>
<clipPath id="clip1_0_27">
<rect width="75.7562" height="100" fill="white" transform="translate(192.455 176)"/>
</clipPath>
</defs>
</svg>
